# xmcd
#
# Track frame offsets:
#        150
#        25057
#        50680
#        80852
#        109651
#        132812
#        154110
#        170590
#        197609
#        226165
#        247786
#
# Disc length: 3631 seconds
#
# Revision: 0
# Processed by: cddbd v1.5.1PL0 Copyright (c) Steve Scherf et al.
# Submitted via: ExactAudioCopy v0.95a5
#
DISCID=850e2d0b
DTITLE=Jimmy Smith - Jimmy Smith at the Organ, Vol. 3
DYEAR=1956
DGENRE=Jazz
TTITLE0=Judo Mambo
TTITLE1=Willow Weep For Me
TTITLE2=Lover Come Back To Me
TTITLE3=Well, You Needn't
TTITLE4=Fiddlin' The Minors
TTITLE5=Autumn Leaves
TTITLE6=I Cover The Waterfront
TTITLE7=Jamey
TTITLE8=My Funny Valentine
TTITLE9=I Can't ive You Anything But Love
TTITLE10=Slightly Monkish
EXTD=
EXTT0=
EXTT1=
EXTT2=
EXTT3=
EXTT4=
EXTT5=
EXTT6=
EXTT7=
EXTT8=
EXTT9=
EXTT10=
PLAYORDER=
